<svg width="18" height="13" viewBox="0 0 18 13" fill="none" xmlns="http://www.w3.org/2000/svg">
<path d="M16.5 0H1.5C1.16848 0 0.850537 0.131696 0.616116 0.366116C0.381696 0.600537 0.25 0.918479 0.25 1.25V11.25C0.25 11.5815 0.381696 11.8995 0.616116 12.1339C0.850537 12.3683 1.16848 12.5 1.5 12.5H16.5C16.8315 12.5 17.1495 12.3683 17.3839 12.1339C17.6183 11.8995 17.75 11.5815 17.75 11.25V1.25C17.75 0.918479 17.6183 0.600537 17.3839 0.366116C17.1495 0.131696 16.8315 0 16.5 0ZM15.125 1.25L9 5.4875L2.875 1.25H15.125ZM1.5 11.25V1.81875L8.64375 6.7625C8.74837 6.83508 8.87267 6.87397 9 6.87397C9.12733 6.87397 9.25163 6.83508 9.35625 6.7625L16.5 1.81875V11.25H1.5Z" fill="black"/>
</svg>
