<svg width="16" height="20" viewBox="0 0 16 20" fill="none" xmlns="http://www.w3.org/2000/svg">
<path d="M7.46833 18.9961C7.62348 19.1069 7.80936 19.1664 8 19.1664C8.19064 19.1664 8.37652 19.1069 8.53167 18.9961C8.81033 18.799 15.3599 14.0699 15.3333 8.16659C15.3333 4.12317 12.0434 0.833252 8 0.833252C3.95658 0.833252 0.666667 4.12317 0.666667 8.162C0.640083 14.0699 7.18967 18.799 7.46833 18.9961ZM8 2.66659C11.0332 2.66659 13.5 5.13334 13.5 8.17117C13.5192 12.2393 9.47767 15.8923 8 17.0903C6.52325 15.8913 2.48075 12.2375 2.5 8.16659C2.5 5.13334 4.96675 2.66659 8 2.66659Z" fill="black"/>
</svg>
