<svg width="18" height="18" viewBox="0 0 18 18" fill="none" xmlns="http://www.w3.org/2000/svg">
<path d="M16.8439 3.12832L14.5559 0.842383C14.2766 0.563086 13.9027 0.40625 13.5074 0.40625C13.1121 0.40625 12.7383 0.560938 12.459 0.842383L9.99473 3.30234C9.71543 3.58164 9.55859 3.95762 9.55859 4.35293C9.55859 4.75039 9.71328 5.12207 9.99473 5.40352L11.9197 7.33066C11.4812 8.35243 10.8511 9.28079 10.0635 10.0656C9.275 10.8584 8.35332 11.4836 7.33066 11.9262L5.40566 9.99902C5.12637 9.71973 4.75254 9.56289 4.35723 9.56289C4.16224 9.56217 3.96907 9.60037 3.78904 9.67526C3.60901 9.75015 3.44574 9.86022 3.30879 9.99902L0.842383 12.459C0.563086 12.7383 0.40625 13.1143 0.40625 13.5096C0.40625 13.907 0.560938 14.2787 0.842383 14.5602L3.12832 16.8461C3.60527 17.323 4.26269 17.5959 4.9373 17.5959C5.07695 17.5959 5.2123 17.5852 5.3498 17.5615C8.19434 17.0932 11.0174 15.5785 13.2969 13.3012C15.5742 11.0195 17.0867 8.19648 17.5594 5.3498C17.6947 4.54199 17.424 3.71055 16.8439 3.12832ZM16.0361 5.09414C15.6172 7.62715 14.2551 10.1537 12.2033 12.2055C10.1516 14.2572 7.62715 15.6193 5.09414 16.0383C4.77617 16.092 4.44961 15.9846 4.21758 15.7547L1.97246 13.5096L4.35293 11.127L6.92676 13.7051L6.94609 13.7244L7.41016 13.5525C8.81723 13.0352 10.095 12.2181 11.1549 11.1578C12.2147 10.0976 13.0314 8.81956 13.5482 7.4123L13.7201 6.94824L11.1248 4.35508L13.5053 1.97246L15.7504 4.21758C15.9824 4.44961 16.0898 4.77617 16.0361 5.09414Z" fill="black"/>
</svg>
