<svg width="165" height="34" viewBox="0 0 165 34" fill="none" xmlns="http://www.w3.org/2000/svg">
<rect x="0.5" y="0.5" width="164" height="33" stroke="black"/>
<path d="M20.56 24.2C19.68 24.2 18.8933 24.0933 18.2 23.88C17.5067 23.6667 16.92 23.3667 16.44 22.98C15.9733 22.5933 15.6133 22.14 15.36 21.62C15.12 21.1 15 20.52 15 19.88C15 19.1067 15.1867 18.44 15.56 17.88C15.9467 17.3067 16.4467 16.8667 17.06 16.56C16.5667 16.2533 16.18 15.86 15.9 15.38C15.6333 14.9 15.5 14.34 15.5 13.7C15.5 12.9267 15.6933 12.2533 16.08 11.68C16.48 11.0933 17.0533 10.6333 17.8 10.3C18.56 9.96667 19.48 9.8 20.56 9.8C21.64 9.8 22.5533 9.96667 23.3 10.3C24.0467 10.62 24.6133 11.0733 25 11.66C25.3867 12.2333 25.58 12.9067 25.58 13.68C25.58 14.32 25.4467 14.88 25.18 15.36C24.9133 15.84 24.54 16.24 24.06 16.56C24.6867 16.8533 25.1867 17.2933 25.56 17.88C25.9333 18.4533 26.12 19.1267 26.12 19.9C26.12 20.74 25.9 21.4867 25.46 22.14C25.0333 22.78 24.4 23.2867 23.56 23.66C22.7333 24.02 21.7333 24.2 20.56 24.2ZM20.56 22.12C21.08 22.12 21.5467 22.0333 21.96 21.86C22.3867 21.6733 22.72 21.4133 22.96 21.08C23.2133 20.7467 23.34 20.3533 23.34 19.9C23.34 19.4333 23.2133 19.04 22.96 18.72C22.72 18.3867 22.3867 18.1333 21.96 17.96C21.5467 17.7733 21.08 17.68 20.56 17.68C20.04 17.68 19.5667 17.7733 19.14 17.96C18.7267 18.1333 18.3933 18.3867 18.14 18.72C17.9 19.04 17.78 19.4333 17.78 19.9C17.78 20.3533 17.9 20.7467 18.14 21.08C18.3933 21.4133 18.7267 21.6733 19.14 21.86C19.5667 22.0333 20.04 22.12 20.56 22.12ZM20.56 15.7C21 15.6867 21.4 15.6 21.76 15.44C22.1333 15.28 22.4267 15.0667 22.64 14.8C22.8667 14.52 22.98 14.1867 22.98 13.8C22.98 13.4133 22.8733 13.08 22.66 12.8C22.46 12.5067 22.1733 12.28 21.8 12.12C21.44 11.96 21.0267 11.88 20.56 11.88C20.0933 11.88 19.6733 11.96 19.3 12.12C18.94 12.28 18.6533 12.5067 18.44 12.8C18.24 13.08 18.14 13.4133 18.14 13.8C18.14 14.1867 18.24 14.52 18.44 14.8C18.6533 15.08 18.94 15.3 19.3 15.46C19.6733 15.62 20.0933 15.7 20.56 15.7ZM33.145 24C32.345 24 31.6717 23.86 31.125 23.58C30.5783 23.3 30.1717 22.8867 29.905 22.34C29.6383 21.78 29.505 21.0867 29.505 20.26V15.72H27.925C27.7917 15.72 27.6783 15.6733 27.585 15.58C27.4917 15.4867 27.445 15.3733 27.445 15.24V14.08C27.445 13.9467 27.4917 13.8333 27.585 13.74C27.6783 13.6467 27.7917 13.6 27.925 13.6H29.505V10.28C29.505 10.1467 29.545 10.0333 29.625 9.94C29.7183 9.84667 29.8383 9.8 29.985 9.8H31.605C31.7383 9.8 31.8517 9.84667 31.945 9.94C32.0383 10.0333 32.085 10.1467 32.085 10.28V13.6H34.585C34.7183 13.6 34.8317 13.6467 34.925 13.74C35.0183 13.8333 35.065 13.9467 35.065 14.08V15.24C35.065 15.3733 35.0183 15.4867 34.925 15.58C34.8317 15.6733 34.7183 15.72 34.585 15.72H32.085V20.06C32.085 20.6067 32.1783 21.0333 32.365 21.34C32.565 21.6467 32.905 21.8 33.385 21.8H34.765C34.8983 21.8 35.0117 21.8467 35.105 21.94C35.1983 22.0333 35.245 22.1467 35.245 22.28V23.52C35.245 23.6533 35.1983 23.7667 35.105 23.86C35.0117 23.9533 34.8983 24 34.765 24H33.145ZM37.5192 24C37.3859 24 37.2726 23.9533 37.1792 23.86C37.0859 23.7667 37.0392 23.6533 37.0392 23.52V10.28C37.0392 10.1467 37.0859 10.0333 37.1792 9.94C37.2726 9.84667 37.3859 9.8 37.5192 9.8H39.2992C39.4459 9.8 39.5592 9.84667 39.6392 9.94C39.7326 10.0333 39.7792 10.1467 39.7792 10.28V14.84C40.1392 14.4133 40.5792 14.0667 41.0992 13.8C41.6192 13.5333 42.2592 13.4 43.0192 13.4C43.8326 13.4 44.5392 13.5867 45.1392 13.96C45.7526 14.32 46.2259 14.8333 46.5592 15.5C46.8926 16.1667 47.0592 16.9667 47.0592 17.9V23.52C47.0592 23.6533 47.0126 23.7667 46.9192 23.86C46.8259 23.9533 46.7126 24 46.5792 24H44.7792C44.6459 24 44.5326 23.9533 44.4392 23.86C44.3459 23.7667 44.2992 23.6533 44.2992 23.52V18.02C44.2992 17.2467 44.1059 16.64 43.7192 16.2C43.3459 15.76 42.7992 15.54 42.0792 15.54C41.3859 15.54 40.8259 15.76 40.3992 16.2C39.9859 16.64 39.7792 17.2467 39.7792 18.02V23.52C39.7792 23.6533 39.7326 23.7667 39.6392 23.86C39.5592 23.9533 39.4459 24 39.2992 24H37.5192ZM55.2373 24.2C53.9973 24.2 52.944 23.9867 52.0773 23.56C51.224 23.12 50.5707 22.5 50.1173 21.7C49.664 20.8867 49.4107 19.9133 49.3573 18.78C49.344 18.2333 49.3373 17.6467 49.3373 17.02C49.3373 16.3933 49.344 15.7933 49.3573 15.22C49.4107 14.1 49.664 13.1333 50.1173 12.32C50.584 11.5067 51.244 10.8867 52.0973 10.46C52.964 10.02 54.0107 9.8 55.2373 9.8C56.144 9.8 56.9573 9.92 57.6773 10.16C58.3973 10.4 59.0107 10.7333 59.5173 11.16C60.024 11.5733 60.4173 12.06 60.6973 12.62C60.9773 13.18 61.124 13.7867 61.1373 14.44C61.1507 14.56 61.1107 14.66 61.0173 14.74C60.9373 14.82 60.8373 14.86 60.7173 14.86H58.8173C58.6707 14.86 58.5507 14.8267 58.4573 14.76C58.364 14.68 58.2973 14.5533 58.2573 14.38C58.044 13.5 57.6773 12.9 57.1573 12.58C56.6373 12.26 55.9907 12.1 55.2173 12.1C54.324 12.1 53.6107 12.3533 53.0773 12.86C52.544 13.3533 52.2573 14.1733 52.2173 15.32C52.1773 16.4133 52.1773 17.5333 52.2173 18.68C52.2573 19.8267 52.544 20.6533 53.0773 21.16C53.6107 21.6533 54.324 21.9 55.2173 21.9C55.9907 21.9 56.6373 21.74 57.1573 21.42C57.6773 21.0867 58.044 20.4867 58.2573 19.62C58.2973 19.4333 58.364 19.3067 58.4573 19.24C58.5507 19.1733 58.6707 19.14 58.8173 19.14H60.7173C60.8373 19.14 60.9373 19.18 61.0173 19.26C61.1107 19.34 61.1507 19.44 61.1373 19.56C61.124 20.2133 60.9773 20.82 60.6973 21.38C60.4173 21.94 60.024 22.4333 59.5173 22.86C59.0107 23.2733 58.3973 23.6 57.6773 23.84C56.9573 24.08 56.144 24.2 55.2373 24.2ZM67.8692 24.2C66.8026 24.2 65.9026 24.0133 65.1692 23.64C64.4492 23.2667 63.8959 22.74 63.5092 22.06C63.1359 21.38 62.9226 20.5867 62.8692 19.68C62.8559 19.44 62.8492 19.1467 62.8492 18.8C62.8492 18.4533 62.8559 18.16 62.8692 17.92C62.9226 17 63.1426 16.2067 63.5292 15.54C63.9292 14.86 64.4892 14.3333 65.2092 13.96C65.9426 13.5867 66.8292 13.4 67.8692 13.4C68.9092 13.4 69.7892 13.5867 70.5092 13.96C71.2426 14.3333 71.8026 14.86 72.1892 15.54C72.5892 16.2067 72.8159 17 72.8692 17.92C72.8826 18.16 72.8892 18.4533 72.8892 18.8C72.8892 19.1467 72.8826 19.44 72.8692 19.68C72.8159 20.5867 72.5959 21.38 72.2092 22.06C71.8359 22.74 71.2826 23.2667 70.5492 23.64C69.8292 24.0133 68.9359 24.2 67.8692 24.2ZM67.8692 22.22C68.5759 22.22 69.1226 22 69.5092 21.56C69.8959 21.1067 70.1092 20.4467 70.1492 19.58C70.1626 19.38 70.1692 19.12 70.1692 18.8C70.1692 18.48 70.1626 18.22 70.1492 18.02C70.1092 17.1667 69.8959 16.5133 69.5092 16.06C69.1226 15.6067 68.5759 15.38 67.8692 15.38C67.1626 15.38 66.6159 15.6067 66.2292 16.06C65.8426 16.5133 65.6292 17.1667 65.5892 18.02C65.5759 18.22 65.5692 18.48 65.5692 18.8C65.5692 19.12 65.5759 19.38 65.5892 19.58C65.6292 20.4467 65.8426 21.1067 66.2292 21.56C66.6159 22 67.1626 22.22 67.8692 22.22ZM75.5852 24C75.4518 24 75.3385 23.9533 75.2452 23.86C75.1518 23.7667 75.1052 23.6533 75.1052 23.52V14.08C75.1052 13.9467 75.1518 13.8333 75.2452 13.74C75.3385 13.6467 75.4518 13.6 75.5852 13.6H77.2252C77.3585 13.6 77.4718 13.6467 77.5652 13.74C77.6585 13.8333 77.7052 13.9467 77.7052 14.08V14.9C78.0518 14.4733 78.4918 14.12 79.0252 13.84C79.5718 13.5467 80.2452 13.4 81.0452 13.4C81.8585 13.4 82.5652 13.5867 83.1652 13.96C83.7652 14.32 84.2252 14.8333 84.5452 15.5C84.8785 16.1667 85.0452 16.9667 85.0452 17.9V23.52C85.0452 23.6533 84.9985 23.7667 84.9052 23.86C84.8118 23.9533 84.6985 24 84.5652 24H82.8052C82.6718 24 82.5585 23.9533 82.4652 23.86C82.3718 23.7667 82.3252 23.6533 82.3252 23.52V18.02C82.3252 17.2467 82.1318 16.64 81.7452 16.2C81.3718 15.76 80.8252 15.54 80.1052 15.54C79.4118 15.54 78.8585 15.76 78.4452 16.2C78.0318 16.64 77.8252 17.2467 77.8252 18.02V23.52C77.8252 23.6533 77.7785 23.7667 77.6852 23.86C77.5918 23.9533 77.4785 24 77.3452 24H75.5852ZM92.1684 24C91.3684 24 90.6951 23.86 90.1484 23.58C89.6018 23.3 89.1951 22.8867 88.9284 22.34C88.6618 21.78 88.5284 21.0867 88.5284 20.26V15.72H86.9484C86.8151 15.72 86.7018 15.6733 86.6084 15.58C86.5151 15.4867 86.4684 15.3733 86.4684 15.24V14.08C86.4684 13.9467 86.5151 13.8333 86.6084 13.74C86.7018 13.6467 86.8151 13.6 86.9484 13.6H88.5284V10.28C88.5284 10.1467 88.5684 10.0333 88.6484 9.94C88.7418 9.84667 88.8618 9.8 89.0084 9.8H90.6284C90.7618 9.8 90.8751 9.84667 90.9684 9.94C91.0618 10.0333 91.1084 10.1467 91.1084 10.28V13.6H93.6084C93.7418 13.6 93.8551 13.6467 93.9484 13.74C94.0418 13.8333 94.0884 13.9467 94.0884 14.08V15.24C94.0884 15.3733 94.0418 15.4867 93.9484 15.58C93.8551 15.6733 93.7418 15.72 93.6084 15.72H91.1084V20.06C91.1084 20.6067 91.2018 21.0333 91.3884 21.34C91.5884 21.6467 91.9284 21.8 92.4084 21.8H93.7884C93.9218 21.8 94.0351 21.8467 94.1284 21.94C94.2218 22.0333 94.2684 22.1467 94.2684 22.28V23.52C94.2684 23.6533 94.2218 23.7667 94.1284 23.86C94.0351 23.9533 93.9218 24 93.7884 24H92.1684ZM96.5227 24C96.3893 24 96.276 23.9533 96.1827 23.86C96.0893 23.7667 96.0427 23.6533 96.0427 23.52V14.08C96.0427 13.9467 96.0893 13.8333 96.1827 13.74C96.276 13.6467 96.3893 13.6 96.5227 13.6H98.1827C98.3293 13.6 98.4427 13.6467 98.5227 13.74C98.616 13.8333 98.6627 13.9467 98.6627 14.08V23.52C98.6627 23.6533 98.616 23.7667 98.5227 23.86C98.4427 23.9533 98.3293 24 98.1827 24H96.5227ZM96.4427 11.88C96.296 11.88 96.176 11.84 96.0827 11.76C96.0027 11.6667 95.9627 11.5467 95.9627 11.4V9.96C95.9627 9.82667 96.0027 9.71333 96.0827 9.62C96.176 9.52667 96.296 9.48 96.4427 9.48H98.2627C98.4093 9.48 98.5293 9.52667 98.6227 9.62C98.716 9.71333 98.7627 9.82667 98.7627 9.96V11.4C98.7627 11.5467 98.716 11.6667 98.6227 11.76C98.5293 11.84 98.4093 11.88 98.2627 11.88H96.4427ZM102.206 24C102.073 24 101.96 23.9533 101.866 23.86C101.773 23.7667 101.726 23.6533 101.726 23.52V14.08C101.726 13.9467 101.773 13.8333 101.866 13.74C101.96 13.6467 102.073 13.6 102.206 13.6H103.846C103.98 13.6 104.093 13.6467 104.186 13.74C104.28 13.8333 104.326 13.9467 104.326 14.08V14.9C104.673 14.4733 105.113 14.12 105.646 13.84C106.193 13.5467 106.866 13.4 107.666 13.4C108.48 13.4 109.186 13.5867 109.786 13.96C110.386 14.32 110.846 14.8333 111.166 15.5C111.5 16.1667 111.666 16.9667 111.666 17.9V23.52C111.666 23.6533 111.62 23.7667 111.526 23.86C111.433 23.9533 111.32 24 111.186 24H109.426C109.293 24 109.18 23.9533 109.086 23.86C108.993 23.7667 108.946 23.6533 108.946 23.52V18.02C108.946 17.2467 108.753 16.64 108.366 16.2C107.993 15.76 107.446 15.54 106.726 15.54C106.033 15.54 105.48 15.76 105.066 16.2C104.653 16.64 104.446 17.2467 104.446 18.02V23.52C104.446 23.6533 104.4 23.7667 104.306 23.86C104.213 23.9533 104.1 24 103.966 24H102.206ZM118.687 24.2C117.207 24.2 116.033 23.7733 115.167 22.92C114.3 22.0667 113.833 20.8533 113.767 19.28C113.753 19.1467 113.747 18.98 113.747 18.78C113.747 18.5667 113.753 18.4 113.767 18.28C113.82 17.28 114.047 16.4133 114.447 15.68C114.86 14.9467 115.427 14.3867 116.147 14C116.867 13.6 117.713 13.4 118.687 13.4C119.767 13.4 120.673 13.6267 121.407 14.08C122.14 14.52 122.693 15.14 123.067 15.94C123.44 16.7267 123.627 17.64 123.627 18.68V19.1C123.627 19.2333 123.58 19.3467 123.487 19.44C123.393 19.5333 123.273 19.58 123.127 19.58H116.487C116.487 19.58 116.487 19.6 116.487 19.64C116.487 19.68 116.487 19.7133 116.487 19.74C116.5 20.2067 116.587 20.64 116.747 21.04C116.92 21.4267 117.167 21.74 117.487 21.98C117.82 22.22 118.213 22.34 118.667 22.34C119.04 22.34 119.353 22.2867 119.607 22.18C119.86 22.06 120.067 21.9267 120.227 21.78C120.387 21.6333 120.5 21.5133 120.567 21.42C120.687 21.26 120.78 21.1667 120.847 21.14C120.927 21.1 121.04 21.08 121.187 21.08H122.907C123.04 21.08 123.147 21.12 123.227 21.2C123.32 21.28 123.36 21.38 123.347 21.5C123.333 21.7133 123.22 21.9733 123.007 22.28C122.807 22.5867 122.513 22.8867 122.127 23.18C121.74 23.4733 121.253 23.72 120.667 23.92C120.093 24.1067 119.433 24.2 118.687 24.2ZM116.487 17.9H120.907V17.84C120.907 17.32 120.82 16.8667 120.647 16.48C120.473 16.0933 120.22 15.7867 119.887 15.56C119.553 15.3333 119.153 15.22 118.687 15.22C118.22 15.22 117.82 15.3333 117.487 15.56C117.153 15.7867 116.9 16.0933 116.727 16.48C116.567 16.8667 116.487 17.32 116.487 17.84V17.9ZM126.23 24C126.096 24 125.983 23.9533 125.89 23.86C125.796 23.7667 125.75 23.6533 125.75 23.52V14.08C125.75 13.9467 125.796 13.8333 125.89 13.74C125.983 13.6467 126.096 13.6 126.23 13.6H127.87C128.003 13.6 128.116 13.6467 128.21 13.74C128.303 13.8333 128.35 13.9467 128.35 14.08V14.9C128.696 14.4733 129.136 14.12 129.67 13.84C130.216 13.5467 130.89 13.4 131.69 13.4C132.503 13.4 133.21 13.5867 133.81 13.96C134.41 14.32 134.87 14.8333 135.19 15.5C135.523 16.1667 135.69 16.9667 135.69 17.9V23.52C135.69 23.6533 135.643 23.7667 135.55 23.86C135.456 23.9533 135.343 24 135.21 24H133.45C133.316 24 133.203 23.9533 133.11 23.86C133.016 23.7667 132.97 23.6533 132.97 23.52V18.02C132.97 17.2467 132.776 16.64 132.39 16.2C132.016 15.76 131.47 15.54 130.75 15.54C130.056 15.54 129.503 15.76 129.09 16.2C128.676 16.64 128.47 17.2467 128.47 18.02V23.52C128.47 23.6533 128.423 23.7667 128.33 23.86C128.236 23.9533 128.123 24 127.99 24H126.23ZM142.813 24C142.013 24 141.34 23.86 140.793 23.58C140.246 23.3 139.84 22.8867 139.573 22.34C139.306 21.78 139.173 21.0867 139.173 20.26V15.72H137.593C137.46 15.72 137.346 15.6733 137.253 15.58C137.16 15.4867 137.113 15.3733 137.113 15.24V14.08C137.113 13.9467 137.16 13.8333 137.253 13.74C137.346 13.6467 137.46 13.6 137.593 13.6H139.173V10.28C139.173 10.1467 139.213 10.0333 139.293 9.94C139.386 9.84667 139.506 9.8 139.653 9.8H141.273C141.406 9.8 141.52 9.84667 141.613 9.94C141.706 10.0333 141.753 10.1467 141.753 10.28V13.6H144.253C144.386 13.6 144.5 13.6467 144.593 13.74C144.686 13.8333 144.733 13.9467 144.733 14.08V15.24C144.733 15.3733 144.686 15.4867 144.593 15.58C144.5 15.6733 144.386 15.72 144.253 15.72H141.753V20.06C141.753 20.6067 141.846 21.0333 142.033 21.34C142.233 21.6467 142.573 21.8 143.053 21.8H144.433C144.566 21.8 144.68 21.8467 144.773 21.94C144.866 22.0333 144.913 22.1467 144.913 22.28V23.52C144.913 23.6533 144.866 23.7667 144.773 23.86C144.68 23.9533 144.566 24 144.433 24H142.813Z" fill="black"/>
</svg>
