<svg width="165" height="49" viewBox="0 0 165 49" fill="none" xmlns="http://www.w3.org/2000/svg">
<rect x="0.5" y="0.5" width="164" height="33" stroke="black"/>
<path d="M20.56 24.2C19.68 24.2 18.8933 24.0933 18.2 23.88C17.5067 23.6667 16.92 23.3667 16.44 22.98C15.9733 22.5933 15.6133 22.14 15.36 21.62C15.12 21.1 15 20.52 15 19.88C15 19.1067 15.1867 18.44 15.56 17.88C15.9467 17.3067 16.4467 16.8667 17.06 16.56C16.5667 16.2533 16.18 15.86 15.9 15.38C15.6333 14.9 15.5 14.34 15.5 13.7C15.5 12.9267 15.6933 12.2533 16.08 11.68C16.48 11.0933 17.0533 10.6333 17.8 10.3C18.56 9.96667 19.48 9.8 20.56 9.8C21.64 9.8 22.5533 9.96667 23.3 10.3C24.0467 10.62 24.6133 11.0733 25 11.66C25.3867 12.2333 25.58 12.9067 25.58 13.68C25.58 14.32 25.4467 14.88 25.18 15.36C24.9133 15.84 24.54 16.24 24.06 16.56C24.6867 16.8533 25.1867 17.2933 25.56 17.88C25.9333 18.4533 26.12 19.1267 26.12 19.9C26.12 20.74 25.9 21.4867 25.46 22.14C25.0333 22.78 24.4 23.2867 23.56 23.66C22.7333 24.02 21.7333 24.2 20.56 24.2ZM20.56 22.12C21.08 22.12 21.5467 22.0333 21.96 21.86C22.3867 21.6733 22.72 21.4133 22.96 21.08C23.2133 20.7467 23.34 20.3533 23.34 19.9C23.34 19.4333 23.2133 19.04 22.96 18.72C22.72 18.3867 22.3867 18.1333 21.96 17.96C21.5467 17.7733 21.08 17.68 20.56 17.68C20.04 17.68 19.5667 17.7733 19.14 17.96C18.7267 18.1333 18.3933 18.3867 18.14 18.72C17.9 19.04 17.78 19.4333 17.78 19.9C17.78 20.3533 17.9 20.7467 18.14 21.08C18.3933 21.4133 18.7267 21.6733 19.14 21.86C19.5667 22.0333 20.04 22.12 20.56 22.12ZM20.56 15.7C21 15.6867 21.4 15.6 21.76 15.44C22.1333 15.28 22.4267 15.0667 22.64 14.8C22.8667 14.52 22.98 14.1867 22.98 13.8C22.98 13.4133 22.8733 13.08 22.66 12.8C22.46 12.5067 22.1733 12.28 21.8 12.12C21.44 11.96 21.0267 11.88 20.56 11.88C20.0933 11.88 19.6733 11.96 19.3 12.12C18.94 12.28 18.6533 12.5067 18.44 12.8C18.24 13.08 18.14 13.4133 18.14 13.8C18.14 14.1867 18.24 14.52 18.44 14.8C18.6533 15.08 18.94 15.3 19.3 15.46C19.6733 15.62 20.0933 15.7 20.56 15.7ZM33.145 24C32.345 24 31.6717 23.86 31.125 23.58C30.5783 23.3 30.1717 22.8867 29.905 22.34C29.6383 21.78 29.505 21.0867 29.505 20.26V15.72H27.925C27.7917 15.72 27.6783 15.6733 27.585 15.58C27.4917 15.4867 27.445 15.3733 27.445 15.24V14.08C27.445 13.9467 27.4917 13.8333 27.585 13.74C27.6783 13.6467 27.7917 13.6 27.925 13.6H29.505V10.28C29.505 10.1467 29.545 10.0333 29.625 9.94C29.7183 9.84667 29.8383 9.8 29.985 9.8H31.605C31.7383 9.8 31.8517 9.84667 31.945 9.94C32.0383 10.0333 32.085 10.1467 32.085 10.28V13.6H34.585C34.7183 13.6 34.8317 13.6467 34.925 13.74C35.0183 13.8333 35.065 13.9467 35.065 14.08V15.24C35.065 15.3733 35.0183 15.4867 34.925 15.58C34.8317 15.6733 34.7183 15.72 34.585 15.72H32.085V20.06C32.085 20.6067 32.1783 21.0333 32.365 21.34C32.565 21.6467 32.905 21.8 33.385 21.8H34.765C34.8983 21.8 35.0117 21.8467 35.105 21.94C35.1983 22.0333 35.245 22.1467 35.245 22.28V23.52C35.245 23.6533 35.1983 23.7667 35.105 23.86C35.0117 23.9533 34.8983 24 34.765 24H33.145ZM37.5192 24C37.3859 24 37.2726 23.9533 37.1792 23.86C37.0859 23.7667 37.0392 23.6533 37.0392 23.52V10.28C37.0392 10.1467 37.0859 10.0333 37.1792 9.94C37.2726 9.84667 37.3859 9.8 37.5192 9.8H39.2992C39.4459 9.8 39.5592 9.84667 39.6392 9.94C39.7326 10.0333 39.7792 10.1467 39.7792 10.28V14.84C40.1392 14.4133 40.5792 14.0667 41.0992 13.8C41.6192 13.5333 42.2592 13.4 43.0192 13.4C43.8326 13.4 44.5392 13.5867 45.1392 13.96C45.7526 14.32 46.2259 14.8333 46.5592 15.5C46.8926 16.1667 47.0592 16.9667 47.0592 17.9V23.52C47.0592 23.6533 47.0126 23.7667 46.9192 23.86C46.8259 23.9533 46.7126 24 46.5792 24H44.7792C44.6459 24 44.5326 23.9533 44.4392 23.86C44.3459 23.7667 44.2992 23.6533 44.2992 23.52V18.02C44.2992 17.2467 44.1059 16.64 43.7192 16.2C43.3459 15.76 42.7992 15.54 42.0792 15.54C41.3859 15.54 40.8259 15.76 40.3992 16.2C39.9859 16.64 39.7792 17.2467 39.7792 18.02V23.52C39.7792 23.6533 39.7326 23.7667 39.6392 23.86C39.5592 23.9533 39.4459 24 39.2992 24H37.5192ZM55.2373 24.2C53.9973 24.2 52.944 23.9867 52.0773 23.56C51.224 23.12 50.5707 22.5 50.1173 21.7C49.664 20.8867 49.4107 19.9133 49.3573 18.78C49.344 18.2333 49.3373 17.6467 49.3373 17.02C49.3373 16.3933 49.344 15.7933 49.3573 15.22C49.4107 14.1 49.664 13.1333 50.1173 12.32C50.584 11.5067 51.244 10.8867 52.0973 10.46C52.964 10.02 54.0107 9.8 55.2373 9.8C56.144 9.8 56.9573 9.92 57.6773 10.16C58.3973 10.4 59.0107 10.7333 59.5173 11.16C60.024 11.5733 60.4173 12.06 60.6973 12.62C60.9773 13.18 61.124 13.7867 61.1373 14.44C61.1507 14.56 61.1107 14.66 61.0173 14.74C60.9373 14.82 60.8373 14.86 60.7173 14.86H58.8173C58.6707 14.86 58.5507 14.8267 58.4573 14.76C58.364 14.68 58.2973 14.5533 58.2573 14.38C58.044 13.5 57.6773 12.9 57.1573 12.58C56.6373 12.26 55.9907 12.1 55.2173 12.1C54.324 12.1 53.6107 12.3533 53.0773 12.86C52.544 13.3533 52.2573 14.1733 52.2173 15.32C52.1773 16.4133 52.1773 17.5333 52.2173 18.68C52.2573 19.8267 52.544 20.6533 53.0773 21.16C53.6107 21.6533 54.324 21.9 55.2173 21.9C55.9907 21.9 56.6373 21.74 57.1573 21.42C57.6773 21.0867 58.044 20.4867 58.2573 19.62C58.2973 19.4333 58.364 19.3067 58.4573 19.24C58.5507 19.1733 58.6707 19.14 58.8173 19.14H60.7173C60.8373 19.14 60.9373 19.18 61.0173 19.26C61.1107 19.34 61.1507 19.44 61.1373 19.56C61.124 20.2133 60.9773 20.82 60.6973 21.38C60.4173 21.94 60.024 22.4333 59.5173 22.86C59.0107 23.2733 58.3973 23.6 57.6773 23.84C56.9573 24.08 56.144 24.2 55.2373 24.2ZM67.8692 24.2C66.8026 24.2 65.9026 24.0133 65.1692 23.64C64.4492 23.2667 63.8959 22.74 63.5092 22.06C63.1359 21.38 62.9226 20.5867 62.8692 19.68C62.8559 19.44 62.8492 19.1467 62.8492 18.8C62.8492 18.4533 62.8559 18.16 62.8692 17.92C62.9226 17 63.1426 16.2067 63.5292 15.54C63.9292 14.86 64.4892 14.3333 65.2092 13.96C65.9426 13.5867 66.8292 13.4 67.8692 13.4C68.9092 13.4 69.7892 13.5867 70.5092 13.96C71.2426 14.3333 71.8026 14.86 72.1892 15.54C72.5892 16.2067 72.8159 17 72.8692 17.92C72.8826 18.16 72.8892 18.4533 72.8892 18.8C72.8892 19.1467 72.8826 19.44 72.8692 19.68C72.8159 20.5867 72.5959 21.38 72.2092 22.06C71.8359 22.74 71.2826 23.2667 70.5492 23.64C69.8292 24.0133 68.9359 24.2 67.8692 24.2ZM67.8692 22.22C68.5759 22.22 69.1226 22 69.5092 21.56C69.8959 21.1067 70.1092 20.4467 70.1492 19.58C70.1626 19.38 70.1692 19.12 70.1692 18.8C70.1692 18.48 70.1626 18.22 70.1492 18.02C70.1092 17.1667 69.8959 16.5133 69.5092 16.06C69.1226 15.6067 68.5759 15.38 67.8692 15.38C67.1626 15.38 66.6159 15.6067 66.2292 16.06C65.8426 16.5133 65.6292 17.1667 65.5892 18.02C65.5759 18.22 65.5692 18.48 65.5692 18.8C65.5692 19.12 65.5759 19.38 65.5892 19.58C65.6292 20.4467 65.8426 21.1067 66.2292 21.56C66.6159 22 67.1626 22.22 67.8692 22.22ZM75.5852 24C75.4518 24 75.3385 23.9533 75.2452 23.86C75.1518 23.7667 75.1052 23.6533 75.1052 23.52V14.08C75.1052 13.9467 75.1518 13.8333 75.2452 13.74C75.3385 13.6467 75.4518 13.6 75.5852 13.6H77.2252C77.3585 13.6 77.4718 13.6467 77.5652 13.74C77.6585 13.8333 77.7052 13.9467 77.7052 14.08V14.9C78.0518 14.4733 78.4918 14.12 79.0252 13.84C79.5718 13.5467 80.2452 13.4 81.0452 13.4C81.8585 13.4 82.5652 13.5867 83.1652 13.96C83.7652 14.32 84.2252 14.8333 84.5452 15.5C84.8785 16.1667 85.0452 16.9667 85.0452 17.9V23.52C85.0452 23.6533 84.9985 23.7667 84.9052 23.86C84.8118 23.9533 84.6985 24 84.5652 24H82.8052C82.6718 24 82.5585 23.9533 82.4652 23.86C82.3718 23.7667 82.3252 23.6533 82.3252 23.52V18.02C82.3252 17.2467 82.1318 16.64 81.7452 16.2C81.3718 15.76 80.8252 15.54 80.1052 15.54C79.4118 15.54 78.8585 15.76 78.4452 16.2C78.0318 16.64 77.8252 17.2467 77.8252 18.02V23.52C77.8252 23.6533 77.7785 23.7667 77.6852 23.86C77.5918 23.9533 77.4785 24 77.3452 24H75.5852ZM92.1684 24C91.3684 24 90.6951 23.86 90.1484 23.58C89.6018 23.3 89.1951 22.8867 88.9284 22.34C88.6618 21.78 88.5284 21.0867 88.5284 20.26V15.72H86.9484C86.8151 15.72 86.7018 15.6733 86.6084 15.58C86.5151 15.4867 86.4684 15.3733 86.4684 15.24V14.08C86.4684 13.9467 86.5151 13.8333 86.6084 13.74C86.7018 13.6467 86.8151 13.6 86.9484 13.6H88.5284V10.28C88.5284 10.1467 88.5684 10.0333 88.6484 9.94C88.7418 9.84667 88.8618 9.8 89.0084 9.8H90.6284C90.7618 9.8 90.8751 9.84667 90.9684 9.94C91.0618 10.0333 91.1084 10.1467 91.1084 10.28V13.6H93.6084C93.7418 13.6 93.8551 13.6467 93.9484 13.74C94.0418 13.8333 94.0884 13.9467 94.0884 14.08V15.24C94.0884 15.3733 94.0418 15.4867 93.9484 15.58C93.8551 15.6733 93.7418 15.72 93.6084 15.72H91.1084V20.06C91.1084 20.6067 91.2018 21.0333 91.3884 21.34C91.5884 21.6467 91.9284 21.8 92.4084 21.8H93.7884C93.9218 21.8 94.0351 21.8467 94.1284 21.94C94.2218 22.0333 94.2684 22.1467 94.2684 22.28V23.52C94.2684 23.6533 94.2218 23.7667 94.1284 23.86C94.0351 23.9533 93.9218 24 93.7884 24H92.1684ZM96.5227 24C96.3893 24 96.276 23.9533 96.1827 23.86C96.0893 23.7667 96.0427 23.6533 96.0427 23.52V14.08C96.0427 13.9467 96.0893 13.8333 96.1827 13.74C96.276 13.6467 96.3893 13.6 96.5227 13.6H98.1827C98.3293 13.6 98.4427 13.6467 98.5227 13.74C98.616 13.8333 98.6627 13.9467 98.6627 14.08V23.52C98.6627 23.6533 98.616 23.7667 98.5227 23.86C98.4427 23.9533 98.3293 24 98.1827 24H96.5227ZM96.4427 11.88C96.296 11.88 96.176 11.84 96.0827 11.76C96.0027 11.6667 95.9627 11.5467 95.9627 11.4V9.96C95.9627 9.82667 96.0027 9.71333 96.0827 9.62C96.176 9.52667 96.296 9.48 96.4427 9.48H98.2627C98.4093 9.48 98.5293 9.52667 98.6227 9.62C98.716 9.71333 98.7627 9.82667 98.7627 9.96V11.4C98.7627 11.5467 98.716 11.6667 98.6227 11.76C98.5293 11.84 98.4093 11.88 98.2627 11.88H96.4427ZM102.206 24C102.073 24 101.96 23.9533 101.866 23.86C101.773 23.7667 101.726 23.6533 101.726 23.52V14.08C101.726 13.9467 101.773 13.8333 101.866 13.74C101.96 13.6467 102.073 13.6 102.206 13.6H103.846C103.98 13.6 104.093 13.6467 104.186 13.74C104.28 13.8333 104.326 13.9467 104.326 14.08V14.9C104.673 14.4733 105.113 14.12 105.646 13.84C106.193 13.5467 106.866 13.4 107.666 13.4C108.48 13.4 109.186 13.5867 109.786 13.96C110.386 14.32 110.846 14.8333 111.166 15.5C111.5 16.1667 111.666 16.9667 111.666 17.9V23.52C111.666 23.6533 111.62 23.7667 111.526 23.86C111.433 23.9533 111.32 24 111.186 24H109.426C109.293 24 109.18 23.9533 109.086 23.86C108.993 23.7667 108.946 23.6533 108.946 23.52V18.02C108.946 17.2467 108.753 16.64 108.366 16.2C107.993 15.76 107.446 15.54 106.726 15.54C106.033 15.54 105.48 15.76 105.066 16.2C104.653 16.64 104.446 17.2467 104.446 18.02V23.52C104.446 23.6533 104.4 23.7667 104.306 23.86C104.213 23.9533 104.1 24 103.966 24H102.206ZM118.687 24.2C117.207 24.2 116.033 23.7733 115.167 22.92C114.3 22.0667 113.833 20.8533 113.767 19.28C113.753 19.1467 113.747 18.98 113.747 18.78C113.747 18.5667 113.753 18.4 113.767 18.28C113.82 17.28 114.047 16.4133 114.447 15.68C114.86 14.9467 115.427 14.3867 116.147 14C116.867 13.6 117.713 13.4 118.687 13.4C119.767 13.4 120.673 13.6267 121.407 14.08C122.14 14.52 122.693 15.14 123.067 15.94C123.44 16.7267 123.627 17.64 123.627 18.68V19.1C123.627 19.2333 123.58 19.3467 123.487 19.44C123.393 19.5333 123.273 19.58 123.127 19.58H116.487C116.487 19.58 116.487 19.6 116.487 19.64C116.487 19.68 116.487 19.7133 116.487 19.74C116.5 20.2067 116.587 20.64 116.747 21.04C116.92 21.4267 117.167 21.74 117.487 21.98C117.82 22.22 118.213 22.34 118.667 22.34C119.04 22.34 119.353 22.2867 119.607 22.18C119.86 22.06 120.067 21.9267 120.227 21.78C120.387 21.6333 120.5 21.5133 120.567 21.42C120.687 21.26 120.78 21.1667 120.847 21.14C120.927 21.1 121.04 21.08 121.187 21.08H122.907C123.04 21.08 123.147 21.12 123.227 21.2C123.32 21.28 123.36 21.38 123.347 21.5C123.333 21.7133 123.22 21.9733 123.007 22.28C122.807 22.5867 122.513 22.8867 122.127 23.18C121.74 23.4733 121.253 23.72 120.667 23.92C120.093 24.1067 119.433 24.2 118.687 24.2ZM116.487 17.9H120.907V17.84C120.907 17.32 120.82 16.8667 120.647 16.48C120.473 16.0933 120.22 15.7867 119.887 15.56C119.553 15.3333 119.153 15.22 118.687 15.22C118.22 15.22 117.82 15.3333 117.487 15.56C117.153 15.7867 116.9 16.0933 116.727 16.48C116.567 16.8667 116.487 17.32 116.487 17.84V17.9ZM126.23 24C126.096 24 125.983 23.9533 125.89 23.86C125.796 23.7667 125.75 23.6533 125.75 23.52V14.08C125.75 13.9467 125.796 13.8333 125.89 13.74C125.983 13.6467 126.096 13.6 126.23 13.6H127.87C128.003 13.6 128.116 13.6467 128.21 13.74C128.303 13.8333 128.35 13.9467 128.35 14.08V14.9C128.696 14.4733 129.136 14.12 129.67 13.84C130.216 13.5467 130.89 13.4 131.69 13.4C132.503 13.4 133.21 13.5867 133.81 13.96C134.41 14.32 134.87 14.8333 135.19 15.5C135.523 16.1667 135.69 16.9667 135.69 17.9V23.52C135.69 23.6533 135.643 23.7667 135.55 23.86C135.456 23.9533 135.343 24 135.21 24H133.45C133.316 24 133.203 23.9533 133.11 23.86C133.016 23.7667 132.97 23.6533 132.97 23.52V18.02C132.97 17.2467 132.776 16.64 132.39 16.2C132.016 15.76 131.47 15.54 130.75 15.54C130.056 15.54 129.503 15.76 129.09 16.2C128.676 16.64 128.47 17.2467 128.47 18.02V23.52C128.47 23.6533 128.423 23.7667 128.33 23.86C128.236 23.9533 128.123 24 127.99 24H126.23ZM142.813 24C142.013 24 141.34 23.86 140.793 23.58C140.246 23.3 139.84 22.8867 139.573 22.34C139.306 21.78 139.173 21.0867 139.173 20.26V15.72H137.593C137.46 15.72 137.346 15.6733 137.253 15.58C137.16 15.4867 137.113 15.3733 137.113 15.24V14.08C137.113 13.9467 137.16 13.8333 137.253 13.74C137.346 13.6467 137.46 13.6 137.593 13.6H139.173V10.28C139.173 10.1467 139.213 10.0333 139.293 9.94C139.386 9.84667 139.506 9.8 139.653 9.8H141.273C141.406 9.8 141.52 9.84667 141.613 9.94C141.706 10.0333 141.753 10.1467 141.753 10.28V13.6H144.253C144.386 13.6 144.5 13.6467 144.593 13.74C144.686 13.8333 144.733 13.9467 144.733 14.08V15.24C144.733 15.3733 144.686 15.4867 144.593 15.58C144.5 15.6733 144.386 15.72 144.253 15.72H141.753V20.06C141.753 20.6067 141.846 21.0333 142.033 21.34C142.233 21.6467 142.573 21.8 143.053 21.8H144.433C144.566 21.8 144.68 21.8467 144.773 21.94C144.866 22.0333 144.913 22.1467 144.913 22.28V23.52C144.913 23.6533 144.866 23.7667 144.773 23.86C144.68 23.9533 144.566 24 144.433 24H142.813Z" fill="black"/>
<path d="M39.2656 46C39.1789 46 39.1096 45.974 39.0576 45.922C39.0056 45.87 38.9796 45.8007 38.9796 45.714V37.68H36.4056C36.3189 37.68 36.2496 37.654 36.1976 37.602C36.1456 37.55 36.1196 37.4807 36.1196 37.394V37.199C36.1196 37.1037 36.1456 37.03 36.1976 36.978C36.2496 36.926 36.3189 36.9 36.4056 36.9H42.3596C42.4549 36.9 42.5286 36.926 42.5806 36.978C42.6326 37.03 42.6586 37.1037 42.6586 37.199V37.394C42.6586 37.4807 42.6326 37.55 42.5806 37.602C42.5286 37.654 42.4549 37.68 42.3596 37.68H39.7986V45.714C39.7986 45.8007 39.7726 45.87 39.7206 45.922C39.6686 45.974 39.5949 46 39.4996 46H39.2656ZM43.1251 46C43.0385 46 42.9691 45.974 42.9171 45.922C42.8651 45.87 42.8391 45.8007 42.8391 45.714V39.539C42.8391 39.4523 42.8651 39.383 42.9171 39.331C42.9691 39.2703 43.0385 39.24 43.1251 39.24H43.3331C43.4198 39.24 43.4891 39.2703 43.5411 39.331C43.6018 39.383 43.6321 39.4523 43.6321 39.539V40.137C43.7881 39.8337 44.0135 39.6083 44.3081 39.461C44.6028 39.3137 44.9668 39.24 45.4001 39.24H45.8811C45.9678 39.24 46.0371 39.266 46.0891 39.318C46.1411 39.37 46.1671 39.4393 46.1671 39.526V39.708C46.1671 39.7947 46.1411 39.864 46.0891 39.916C46.0371 39.968 45.9678 39.994 45.8811 39.994H45.3221C44.8021 39.994 44.3905 40.1457 44.0871 40.449C43.7838 40.7523 43.6321 41.164 43.6321 41.684V45.714C43.6321 45.8007 43.6018 45.87 43.5411 45.922C43.4891 45.974 43.4198 46 43.3331 46H43.1251ZM49.0771 46.13C48.6611 46.13 48.2754 46.0433 47.9201 45.87C47.5734 45.6967 47.2918 45.467 47.0751 45.181C46.8584 44.8863 46.7501 44.557 46.7501 44.193C46.7501 43.6037 46.9884 43.1313 47.4651 42.776C47.9418 42.4207 48.5614 42.191 49.3241 42.087L51.3781 41.801V41.346C51.3781 40.8867 51.2351 40.527 50.9491 40.267C50.6718 39.9983 50.2254 39.864 49.6101 39.864C49.1594 39.864 48.7954 39.955 48.5181 40.137C48.2408 40.3103 48.0501 40.54 47.9461 40.826C47.9028 40.956 47.8204 41.021 47.6991 41.021H47.4911C47.3871 41.021 47.3134 40.995 47.2701 40.943C47.2268 40.8823 47.2051 40.813 47.2051 40.735C47.2051 40.6137 47.2484 40.462 47.3351 40.28C47.4304 40.098 47.5734 39.9203 47.7641 39.747C47.9548 39.565 48.2018 39.4133 48.5051 39.292C48.8084 39.1707 49.1768 39.11 49.6101 39.11C50.1214 39.11 50.5418 39.1793 50.8711 39.318C51.2091 39.4567 51.4691 39.6387 51.6511 39.864C51.8418 40.0807 51.9761 40.3233 52.0541 40.592C52.1321 40.8607 52.1711 41.125 52.1711 41.385V45.714C52.1711 45.8007 52.1451 45.87 52.0931 45.922C52.0411 45.974 51.9718 46 51.8851 46H51.6641C51.5774 46 51.5081 45.974 51.4561 45.922C51.4041 45.87 51.3781 45.8007 51.3781 45.714V45.103C51.2741 45.259 51.1268 45.415 50.9361 45.571C50.7454 45.727 50.4984 45.8613 50.1951 45.974C49.9004 46.078 49.5278 46.13 49.0771 46.13ZM49.2071 45.376C49.6058 45.376 49.9698 45.2893 50.2991 45.116C50.6284 44.9427 50.8884 44.6783 51.0791 44.323C51.2784 43.959 51.3781 43.504 51.3781 42.958V42.516L49.7011 42.75C48.9904 42.8453 48.4531 43.01 48.0891 43.244C47.7251 43.478 47.5431 43.7727 47.5431 44.128C47.5431 44.414 47.6254 44.648 47.7901 44.83C47.9548 45.012 48.1628 45.1507 48.4141 45.246C48.6741 45.3327 48.9384 45.376 49.2071 45.376ZM56.4523 46C56.3136 46 56.2053 45.9697 56.1273 45.909C56.0579 45.8483 56.0016 45.7703 55.9583 45.675L53.5663 39.643C53.5489 39.591 53.5403 39.5433 53.5403 39.5C53.5403 39.4307 53.5663 39.37 53.6183 39.318C53.6703 39.266 53.7309 39.24 53.8003 39.24H54.0733C54.1599 39.24 54.2249 39.266 54.2683 39.318C54.3203 39.3613 54.3506 39.4003 54.3593 39.435L56.5563 45.051L58.7533 39.435C58.7706 39.4003 58.8009 39.3613 58.8443 39.318C58.8876 39.266 58.9526 39.24 59.0393 39.24H59.3123C59.3816 39.24 59.4423 39.266 59.4943 39.318C59.5463 39.37 59.5723 39.4307 59.5723 39.5C59.5723 39.5433 59.5636 39.591 59.5463 39.643L57.1543 45.675C57.1196 45.7703 57.0633 45.8483 56.9853 45.909C56.9073 45.9697 56.7989 46 56.6603 46H56.4523ZM63.3755 46.13C62.5348 46.13 61.8675 45.857 61.3735 45.311C60.8795 44.7563 60.5978 44.0327 60.5285 43.14C60.5198 43.01 60.5155 42.8367 60.5155 42.62C60.5155 42.4033 60.5198 42.23 60.5285 42.1C60.5718 41.5107 60.7105 40.9907 60.9445 40.54C61.1785 40.0893 61.4991 39.7383 61.9065 39.487C62.3225 39.2357 62.8121 39.11 63.3755 39.11C63.9821 39.11 64.4978 39.2443 64.9225 39.513C65.3471 39.7817 65.6721 40.1673 65.8975 40.67C66.1315 41.1727 66.2485 41.7707 66.2485 42.464V42.659C66.2485 42.7457 66.2181 42.815 66.1575 42.867C66.1055 42.919 66.0361 42.945 65.9495 42.945H61.3215C61.3215 42.945 61.3215 42.9623 61.3215 42.997C61.3215 43.0317 61.3215 43.0577 61.3215 43.075C61.3388 43.465 61.4298 43.8377 61.5945 44.193C61.7591 44.5397 61.9931 44.8257 62.2965 45.051C62.5998 45.2677 62.9595 45.376 63.3755 45.376C63.7481 45.376 64.0558 45.3197 64.2985 45.207C64.5498 45.0943 64.7491 44.973 64.8965 44.843C65.0438 44.7043 65.1391 44.6003 65.1825 44.531C65.2605 44.4183 65.3211 44.3533 65.3645 44.336C65.4078 44.31 65.4771 44.297 65.5725 44.297H65.7805C65.8585 44.297 65.9235 44.323 65.9755 44.375C66.0361 44.4183 66.0621 44.479 66.0535 44.557C66.0448 44.6783 65.9755 44.83 65.8455 45.012C65.7241 45.1853 65.5465 45.3587 65.3125 45.532C65.0871 45.7053 64.8098 45.8483 64.4805 45.961C64.1511 46.0737 63.7828 46.13 63.3755 46.13ZM61.3215 42.217H65.4555V42.165C65.4555 41.7317 65.3731 41.3417 65.2085 40.995C65.0438 40.6483 64.8055 40.3753 64.4935 40.176C64.1815 39.968 63.8088 39.864 63.3755 39.864C62.9421 39.864 62.5695 39.968 62.2575 40.176C61.9541 40.3753 61.7201 40.6483 61.5555 40.995C61.3995 41.3417 61.3215 41.7317 61.3215 42.165V42.217ZM68.2622 46C68.1755 46 68.1062 45.974 68.0542 45.922C68.0022 45.87 67.9762 45.8007 67.9762 45.714V37.056C67.9762 36.9693 68.0022 36.9 68.0542 36.848C68.1062 36.796 68.1755 36.77 68.2622 36.77H68.4832C68.5698 36.77 68.6392 36.796 68.6912 36.848C68.7432 36.9 68.7692 36.9693 68.7692 37.056V45.714C68.7692 45.8007 68.7432 45.87 68.6912 45.922C68.6392 45.974 68.5698 46 68.4832 46H68.2622ZM77.4846 46.13C76.696 46.13 76.0503 45.9783 75.5476 45.675C75.0536 45.363 74.6853 44.9427 74.4426 44.414C74.2 43.8853 74.0656 43.283 74.0396 42.607C74.031 42.2517 74.0266 41.8703 74.0266 41.463C74.0266 41.0557 74.031 40.6657 74.0396 40.293C74.0656 39.617 74.2 39.0147 74.4426 38.486C74.6853 37.9487 75.0536 37.5283 75.5476 37.225C76.0503 36.9217 76.696 36.77 77.4846 36.77C78.1 36.77 78.6243 36.8567 79.0576 37.03C79.491 37.2033 79.842 37.433 80.1106 37.719C80.388 37.9963 80.5916 38.2997 80.7216 38.629C80.8603 38.9497 80.9383 39.266 80.9556 39.578C80.9643 39.656 80.9383 39.721 80.8776 39.773C80.8256 39.8163 80.7606 39.838 80.6826 39.838H80.4226C80.3533 39.838 80.2926 39.8207 80.2406 39.786C80.1886 39.7427 80.154 39.669 80.1366 39.565C79.972 38.7937 79.66 38.265 79.2006 37.979C78.75 37.693 78.178 37.55 77.4846 37.55C76.696 37.55 76.0676 37.7753 75.5996 38.226C75.1403 38.668 74.8933 39.3787 74.8586 40.358C74.8326 41.0687 74.8326 41.7967 74.8586 42.542C74.8933 43.5213 75.1403 44.2363 75.5996 44.687C76.0676 45.129 76.696 45.35 77.4846 45.35C78.178 45.35 78.75 45.207 79.2006 44.921C79.66 44.635 79.972 44.1063 80.1366 43.335C80.154 43.231 80.1886 43.1617 80.2406 43.127C80.2926 43.0837 80.3533 43.062 80.4226 43.062H80.6826C80.7606 43.062 80.8256 43.088 80.8776 43.14C80.9383 43.1833 80.9643 43.244 80.9556 43.322C80.9383 43.634 80.8603 43.9547 80.7216 44.284C80.5916 44.6047 80.388 44.908 80.1106 45.194C79.842 45.4713 79.491 45.6967 79.0576 45.87C78.6243 46.0433 78.1 46.13 77.4846 46.13ZM85.2764 46.13C84.6524 46.13 84.1281 46 83.7034 45.74C83.2874 45.48 82.9667 45.1247 82.7414 44.674C82.5247 44.2233 82.4077 43.7207 82.3904 43.166C82.3817 43.036 82.3774 42.854 82.3774 42.62C82.3774 42.386 82.3817 42.204 82.3904 42.074C82.4077 41.5107 82.5247 41.008 82.7414 40.566C82.9667 40.1153 83.2874 39.76 83.7034 39.5C84.1281 39.24 84.6524 39.11 85.2764 39.11C85.9004 39.11 86.4204 39.24 86.8364 39.5C87.2611 39.76 87.5817 40.1153 87.7984 40.566C88.0237 41.008 88.1451 41.5107 88.1624 42.074C88.1711 42.204 88.1754 42.386 88.1754 42.62C88.1754 42.854 88.1711 43.036 88.1624 43.166C88.1451 43.7207 88.0237 44.2233 87.7984 44.674C87.5817 45.1247 87.2611 45.48 86.8364 45.74C86.4204 46 85.9004 46.13 85.2764 46.13ZM85.2764 45.376C85.8831 45.376 86.3771 45.181 86.7584 44.791C87.1397 44.401 87.3434 43.8377 87.3694 43.101C87.3781 42.971 87.3824 42.8107 87.3824 42.62C87.3824 42.4293 87.3781 42.269 87.3694 42.139C87.3434 41.3937 87.1397 40.8303 86.7584 40.449C86.3771 40.059 85.8831 39.864 85.2764 39.864C84.6697 39.864 84.1757 40.059 83.7944 40.449C83.4131 40.8303 83.2094 41.3937 83.1834 42.139C83.1747 42.269 83.1704 42.4293 83.1704 42.62C83.1704 42.8107 83.1747 42.971 83.1834 43.101C83.2094 43.8377 83.4131 44.401 83.7944 44.791C84.1757 45.181 84.6697 45.376 85.2764 45.376ZM90.2374 46C90.1508 46 90.0814 45.974 90.0294 45.922C89.9774 45.87 89.9514 45.8007 89.9514 45.714V39.526C89.9514 39.4393 89.9774 39.37 90.0294 39.318C90.0814 39.266 90.1508 39.24 90.2374 39.24H90.4584C90.5451 39.24 90.6144 39.266 90.6664 39.318C90.7184 39.37 90.7444 39.4393 90.7444 39.526V39.981C90.9611 39.7037 91.2168 39.4913 91.5114 39.344C91.8148 39.188 92.1788 39.11 92.6034 39.11C93.5741 39.11 94.2674 39.5173 94.6834 40.332C94.8828 39.9593 95.1731 39.6647 95.5544 39.448C95.9444 39.2227 96.3908 39.11 96.8934 39.11C97.3528 39.11 97.7644 39.2183 98.1284 39.435C98.5011 39.643 98.7914 39.955 98.9994 40.371C99.2161 40.787 99.3244 41.307 99.3244 41.931V45.714C99.3244 45.8007 99.2984 45.87 99.2464 45.922C99.1944 45.974 99.1251 46 99.0384 46H98.8174C98.7308 46 98.6614 45.974 98.6094 45.922C98.5574 45.87 98.5314 45.8007 98.5314 45.714V42.061C98.5314 41.489 98.4491 41.047 98.2844 40.735C98.1198 40.4143 97.9031 40.189 97.6344 40.059C97.3658 39.929 97.0754 39.864 96.7634 39.864C96.5034 39.864 96.2391 39.929 95.9704 40.059C95.7018 40.189 95.4764 40.4143 95.2944 40.735C95.1211 41.047 95.0344 41.489 95.0344 42.061V45.714C95.0344 45.8007 95.0084 45.87 94.9564 45.922C94.9044 45.974 94.8351 46 94.7484 46H94.5274C94.4408 46 94.3714 45.974 94.3194 45.922C94.2674 45.87 94.2414 45.8007 94.2414 45.714V42.061C94.2414 41.489 94.1548 41.047 93.9814 40.735C93.8081 40.4143 93.5871 40.189 93.3184 40.059C93.0498 39.929 92.7681 39.864 92.4734 39.864C92.2134 39.864 91.9491 39.929 91.6804 40.059C91.4118 40.189 91.1864 40.4143 91.0044 40.735C90.8311 41.047 90.7444 41.4847 90.7444 42.048V45.714C90.7444 45.8007 90.7184 45.87 90.6664 45.922C90.6144 45.974 90.5451 46 90.4584 46H90.2374ZM101.664 48.47C101.577 48.47 101.508 48.444 101.456 48.392C101.404 48.34 101.378 48.2707 101.378 48.184V39.526C101.378 39.4393 101.404 39.37 101.456 39.318C101.508 39.266 101.577 39.24 101.664 39.24H101.885C101.971 39.24 102.041 39.266 102.093 39.318C102.145 39.37 102.171 39.4393 102.171 39.526V40.137C102.387 39.8423 102.669 39.5997 103.016 39.409C103.371 39.2097 103.817 39.11 104.355 39.11C104.866 39.11 105.295 39.201 105.642 39.383C105.988 39.5563 106.27 39.7903 106.487 40.085C106.703 40.3797 106.864 40.709 106.968 41.073C107.072 41.437 107.128 41.8097 107.137 42.191C107.145 42.321 107.15 42.464 107.15 42.62C107.15 42.776 107.145 42.919 107.137 43.049C107.128 43.4303 107.072 43.803 106.968 44.167C106.864 44.531 106.703 44.8603 106.487 45.155C106.27 45.4497 105.988 45.688 105.642 45.87C105.295 46.0433 104.866 46.13 104.355 46.13C103.817 46.13 103.371 46.0303 103.016 45.831C102.669 45.6317 102.387 45.389 102.171 45.103V48.184C102.171 48.2707 102.145 48.34 102.093 48.392C102.041 48.444 101.971 48.47 101.885 48.47H101.664ZM104.277 45.376C104.788 45.376 105.191 45.2633 105.486 45.038C105.78 44.8127 105.993 44.518 106.123 44.154C106.253 43.79 106.326 43.4 106.344 42.984C106.352 42.7413 106.352 42.4987 106.344 42.256C106.326 41.84 106.253 41.45 106.123 41.086C105.993 40.722 105.78 40.4273 105.486 40.202C105.191 39.9767 104.788 39.864 104.277 39.864C103.783 39.864 103.384 39.981 103.081 40.215C102.777 40.449 102.552 40.7437 102.405 41.099C102.266 41.4457 102.188 41.7967 102.171 42.152C102.162 42.282 102.158 42.451 102.158 42.659C102.158 42.867 102.162 43.036 102.171 43.166C102.179 43.5127 102.257 43.855 102.405 44.193C102.561 44.531 102.79 44.8127 103.094 45.038C103.406 45.2633 103.8 45.376 104.277 45.376ZM110.738 46.13C110.322 46.13 109.937 46.0433 109.581 45.87C109.235 45.6967 108.953 45.467 108.736 45.181C108.52 44.8863 108.411 44.557 108.411 44.193C108.411 43.6037 108.65 43.1313 109.126 42.776C109.603 42.4207 110.223 42.191 110.985 42.087L113.039 41.801V41.346C113.039 40.8867 112.896 40.527 112.61 40.267C112.333 39.9983 111.887 39.864 111.271 39.864C110.821 39.864 110.457 39.955 110.179 40.137C109.902 40.3103 109.711 40.54 109.607 40.826C109.564 40.956 109.482 41.021 109.36 41.021H109.152C109.048 41.021 108.975 40.995 108.931 40.943C108.888 40.8823 108.866 40.813 108.866 40.735C108.866 40.6137 108.91 40.462 108.996 40.28C109.092 40.098 109.235 39.9203 109.425 39.747C109.616 39.565 109.863 39.4133 110.166 39.292C110.47 39.1707 110.838 39.11 111.271 39.11C111.783 39.11 112.203 39.1793 112.532 39.318C112.87 39.4567 113.13 39.6387 113.312 39.864C113.503 40.0807 113.637 40.3233 113.715 40.592C113.793 40.8607 113.832 41.125 113.832 41.385V45.714C113.832 45.8007 113.806 45.87 113.754 45.922C113.702 45.974 113.633 46 113.546 46H113.325C113.239 46 113.169 45.974 113.117 45.922C113.065 45.87 113.039 45.8007 113.039 45.714V45.103C112.935 45.259 112.788 45.415 112.597 45.571C112.407 45.727 112.16 45.8613 111.856 45.974C111.562 46.078 111.189 46.13 110.738 46.13ZM110.868 45.376C111.267 45.376 111.631 45.2893 111.96 45.116C112.29 44.9427 112.55 44.6783 112.74 44.323C112.94 43.959 113.039 43.504 113.039 42.958V42.516L111.362 42.75C110.652 42.8453 110.114 43.01 109.75 43.244C109.386 43.478 109.204 43.7727 109.204 44.128C109.204 44.414 109.287 44.648 109.451 44.83C109.616 45.012 109.824 45.1507 110.075 45.246C110.335 45.3327 110.6 45.376 110.868 45.376ZM116.174 46C116.087 46 116.018 45.974 115.966 45.922C115.914 45.87 115.888 45.8007 115.888 45.714V39.526C115.888 39.4393 115.914 39.37 115.966 39.318C116.018 39.266 116.087 39.24 116.174 39.24H116.395C116.482 39.24 116.551 39.266 116.603 39.318C116.655 39.37 116.681 39.4393 116.681 39.526V40.137C116.915 39.8337 117.197 39.5867 117.526 39.396C117.864 39.2053 118.31 39.11 118.865 39.11C119.454 39.11 119.944 39.24 120.334 39.5C120.733 39.7513 121.027 40.098 121.218 40.54C121.417 40.9733 121.517 41.4673 121.517 42.022V45.714C121.517 45.8007 121.491 45.87 121.439 45.922C121.387 45.974 121.318 46 121.231 46H121.01C120.923 46 120.854 45.974 120.802 45.922C120.75 45.87 120.724 45.8007 120.724 45.714V42.087C120.724 41.3937 120.555 40.852 120.217 40.462C119.879 40.0633 119.385 39.864 118.735 39.864C118.12 39.864 117.621 40.0633 117.24 40.462C116.867 40.852 116.681 41.3937 116.681 42.087V45.714C116.681 45.8007 116.655 45.87 116.603 45.922C116.551 45.974 116.482 46 116.395 46H116.174ZM124.51 48.47C124.44 48.47 124.38 48.444 124.328 48.392C124.276 48.34 124.25 48.2793 124.25 48.21C124.25 48.1753 124.254 48.1363 124.263 48.093C124.28 48.0583 124.302 48.0107 124.328 47.95L125.329 45.61L122.846 39.76C122.794 39.63 122.768 39.5433 122.768 39.5C122.768 39.4307 122.794 39.37 122.846 39.318C122.898 39.266 122.958 39.24 123.028 39.24H123.301C123.387 39.24 123.452 39.2617 123.496 39.305C123.548 39.3397 123.582 39.383 123.6 39.435L125.784 44.583L128.02 39.435C128.046 39.383 128.08 39.3397 128.124 39.305C128.167 39.2617 128.232 39.24 128.319 39.24H128.579C128.648 39.24 128.709 39.266 128.761 39.318C128.813 39.37 128.839 39.4307 128.839 39.5C128.839 39.5433 128.813 39.63 128.761 39.76L125.069 48.275C125.043 48.327 125.008 48.3703 124.965 48.405C124.921 48.4483 124.856 48.47 124.77 48.47H124.51Z" fill="black"/>
</svg>
