<svg width="22" height="22" viewBox="0 0 22 22" fill="none" xmlns="http://www.w3.org/2000/svg">
<path d="M10.4486 0.00344539C8.68312 0.0247579 4.88743 0.314883 2.76443 2.26257C1.18524 3.82732 0.633869 6.14076 0.569244 9.00145C0.515619 11.8518 0.450994 17.2047 5.61068 18.6622V20.8821C5.61068 20.8821 5.57837 21.7704 6.16549 21.9526C6.88874 22.1815 7.30056 21.4981 7.98806 20.7639L9.27024 19.3139C12.8006 19.6075 15.5045 18.931 15.8159 18.8306C16.5323 18.6017 20.5672 18.0861 21.2266 12.7325C21.9031 7.20363 20.8972 3.72007 19.0816 2.14432H19.0706C18.5226 1.6397 16.3206 0.0350704 11.4008 0.0171954C11.4008 0.0171954 11.0357 -0.00755461 10.4486 0.00275789V0.00344539ZM10.5091 1.55788C11.0103 1.55445 11.3149 1.57576 11.3149 1.57576C15.4791 1.58676 17.4666 2.84007 17.9355 3.2622C19.4645 4.57257 20.2524 7.71307 19.6756 12.3289C19.1276 16.8046 15.8551 17.0878 15.2494 17.281C14.9916 17.3635 12.6101 17.9506 9.60987 17.7574C9.60987 17.7574 7.37549 20.4538 6.67699 21.1482C6.56631 21.2699 6.43706 21.3056 6.35456 21.2878C6.23631 21.2589 6.20056 21.1124 6.20743 20.9117L6.22874 17.2274C1.85281 16.0174 2.11062 11.4517 2.15737 9.06676C2.21099 6.68182 2.65856 4.7307 3.99093 3.40932C5.78462 1.78751 9.00762 1.56888 10.5077 1.55788H10.5091ZM10.8391 3.94213C10.8031 3.94177 10.7674 3.94854 10.734 3.96205C10.7006 3.97556 10.6702 3.99555 10.6446 4.02085C10.619 4.04616 10.5986 4.07629 10.5847 4.10951C10.5707 4.14272 10.5635 4.17837 10.5634 4.21438C10.5634 4.36838 10.6886 4.49007 10.8391 4.49007C11.5208 4.47711 12.1983 4.59922 12.8325 4.84938C13.4667 5.09953 14.0452 5.47277 14.5344 5.94757C15.5334 6.91763 16.0201 8.22113 16.0387 9.92545C16.0387 10.076 16.1604 10.2011 16.3144 10.2011V10.1901C16.3869 10.1903 16.4567 10.1618 16.5083 10.1108C16.5599 10.0598 16.5893 9.99046 16.5901 9.91788C16.6234 9.11567 16.4933 8.31505 16.2077 7.56468C15.922 6.81431 15.4868 6.12987 14.9284 5.55295C13.8401 4.48938 12.4609 3.94145 10.8391 3.94145V3.94213ZM7.21531 4.57257C7.02071 4.54414 6.82224 4.5832 6.65293 4.68326H6.63849C6.24542 4.91367 5.89133 5.20488 5.58937 5.54607C5.33843 5.8362 5.20231 6.12976 5.16656 6.41232C5.14524 6.58076 5.15968 6.7492 5.20987 6.91007L5.22774 6.92107C5.51031 7.75157 5.87949 8.55045 6.33049 9.30257C6.91145 10.3592 7.6264 11.3365 8.45762 12.21L8.48237 12.2458L8.52156 12.2746L8.54631 12.3035L8.57518 12.3283C9.4519 13.1619 10.4315 13.8802 11.4902 14.4657C12.7002 15.1243 13.4344 15.4358 13.8751 15.565V15.5719C14.0044 15.6111 14.1219 15.6289 14.2402 15.6289C14.6158 15.6014 14.9713 15.4489 15.2501 15.1958C15.5898 14.8938 15.8777 14.5382 16.1026 14.1433V14.1364C16.3137 13.739 16.2422 13.3629 15.9376 13.1086C15.3277 12.5754 14.6681 12.1019 13.9679 11.6944C13.4991 11.44 13.0226 11.594 12.8294 11.8518L12.4176 12.3709C12.2066 12.6287 11.8229 12.5929 11.8229 12.5929L11.8119 12.5998C8.95124 11.869 8.18812 8.97257 8.18812 8.97257C8.18812 8.97257 8.15237 8.57863 8.41706 8.37788L8.93268 7.96263C9.17949 7.76188 9.35137 7.28613 9.08668 6.81657C8.68202 6.11543 8.2095 5.4557 7.67593 4.84688C7.55928 4.70335 7.39564 4.6057 7.21393 4.5712L7.21531 4.57257ZM11.3149 5.38932C10.9498 5.38932 10.9498 5.9407 11.3183 5.9407C11.7723 5.94806 12.2203 6.04481 12.6368 6.22541C13.0534 6.40602 13.4302 6.66694 13.7459 6.99326C14.0338 7.31089 14.2551 7.68308 14.3965 8.08779C14.538 8.49249 14.5968 8.92147 14.5695 9.34932C14.5708 9.42173 14.6003 9.49076 14.6518 9.54165C14.7034 9.59253 14.7728 9.62122 14.8452 9.62157L14.8562 9.63601C14.9291 9.63547 14.9989 9.60625 15.0505 9.55466C15.1021 9.50308 15.1313 9.43327 15.1319 9.36032C15.1566 8.26788 14.817 7.35145 14.1508 6.6172C13.4812 5.88295 12.5469 5.47113 11.3541 5.38932H11.3149ZM11.7666 6.87157C11.3905 6.86057 11.3761 7.42295 11.7487 7.43395C12.6548 7.4807 13.0948 7.93857 13.1526 8.88045C13.1538 8.95194 13.183 9.0201 13.2339 9.07034C13.2848 9.12058 13.3533 9.14891 13.4248 9.14926H13.4358C13.4726 9.14768 13.5086 9.1388 13.5419 9.12313C13.5752 9.10746 13.6051 9.08531 13.6297 9.05798C13.6543 9.03065 13.6733 8.99869 13.6855 8.96396C13.6976 8.92923 13.7027 8.89242 13.7005 8.8557C13.6359 7.62782 12.9662 6.9362 11.7776 6.87226H11.7666V6.87157Z" fill="black"/>
</svg>
